<?xml version="1.0" encoding="UTF-8"?>
<svg width="512px" height="512px" viewBox="0 0 512 512" version="1.1" xmlns="http://www.w3.org/2000/svg" xmlns:xlink="http://www.w3.org/1999/xlink">
    <title>Icon</title>
    <defs>
        <linearGradient x1="50%" y1="0%" x2="50%" y2="100%" id="linearGradient-1">
            <stop stop-color="#CCE1E9" offset="0%"></stop>
            <stop stop-color="#797977" offset="100%"></stop>
        </linearGradient>
    </defs>
    <g id="Icon" stroke="none" stroke-width="1" fill="none" fill-rule="evenodd">
        <path d="M512,365.858544 C512,416.675112 506.70894,435.102427 496.773436,453.680205 C486.837932,472.257983 472.257983,486.837932 453.680205,496.773436 C435.102427,506.70894 416.675112,512 365.858544,512 L365.858544,512 L146.141456,512 L144.626644,511.998413 C94.9563269,511.893714 76.7117949,506.609585 58.3197949,496.773436 C39.7420171,486.837932 25.1620684,472.257983 15.2265641,453.680205 C5.29105984,435.102427 -5.58534475e-15,416.675112 -1.18085795e-14,365.858544 L-1.18085795e-14,365.858544 L-3.93619317e-15,146.141456 L0.00158667134,144.626644 C0.106285641,94.9563269 5.39041488,76.7117949 15.2265641,58.3197949 C25.1620684,39.7420171 39.7420171,25.1620684 58.3197949,15.2265641 C76.8975727,5.29105984 95.3248882,-8.37801713e-15 146.141456,-1.77128693e-14 L146.141456,-1.77128693e-14 L365.858544,-5.90428975e-15 L367.373356,0.00158667134 C417.043673,0.106285641 435.288205,5.39041488 453.680205,15.2265641 C472.257983,25.1620684 486.837932,39.7420171 496.773436,58.3197949 C506.70894,76.8975727 512,95.3248882 512,146.141456 L512,146.141456 Z" id="Combined-Shape" fill="url(#linearGradient-1)"></path>
        <path d="M256.500656,399.993193 C272.254413,400.029251 303.745229,400.310046 320.909608,401.895393 C339.801529,403.640301 346.596714,405.876608 348.537933,406.688207 C348.200018,408.42901 347.649,410.155141 346.541954,411.808028 L346.541954,411.808028 C344.692875,414.694099 305.088222,417 256.501558,417 C207.914277,417 168.309236,414.694041 166.465604,411.807756 C165.355228,410.154664 164.802379,408.428255 164.463069,406.687609 C166.407986,405.875062 173.205003,403.639698 192.090392,401.895393 C209.254771,400.310046 240.745587,400.029251 256.499344,399.993193 Z M256.5,334.789792 C273.77101,334.810981 290.748235,336.089141 299.63279,335.99505 C299.54161,336.030677 299.46286,336.060793 299.396981,336.08538 C330.596905,337.952048 352,341.791491 352,346.224832 C352,346.405944 351.96428,346.586065 351.893632,346.765101 L351.893632,346.765101 L352,346.765101 L352,391.049962 C352,392.409121 351.951114,395.942059 351.466039,397.547302 C351.03471,398.974685 350.340875,399.180038 349.957154,399.247045 C349.985211,399.087384 350,398.996753 350,398.996753 C350,398.996753 342.003446,395.72519 320.909608,394.105996 C304.558998,392.850899 272.469891,392.938443 256.49822,393.074692 C240.531456,392.938446 208.441345,392.850873 192.090392,394.105996 C170.996554,395.72519 163,398.996753 163,398.996753 C163,398.996753 163.014789,399.087384 163.041904,399.245199 C162.659125,399.180038 161.96529,398.974685 161.533961,397.547302 C160.926434,395.536833 161.003115,390.502576 161.003115,390.502576 L161.003115,390.502576 L161.003115,346.765101 L161.109483,346.765101 C161.038835,346.586065 161.003115,346.405944 161.003115,346.224832 C161.003115,341.725475 183.048371,337.837836 215.006382,336.003309 C215.002256,336.001681 214.998105,336.000041 214.993929,335.998388 C224.222053,335.945107 240.230679,334.809752 256.5,334.789792 Z M257.041097,95 C290.414777,95 317.46949,122.09128 317.46949,155.510067 L317.46949,155.510067 L317.469239,155.686279 C317.552796,183.381734 296.730416,227.582577 294.486885,250.200556 C293.392741,261.23108 289.531352,283.018059 292.672263,301.13352 C295.813174,319.248982 303.574018,316.128835 305.821424,328.252992 C306.215437,330.378589 305.26502,332.058158 303.968754,333.313091 C297.900314,330.94162 279.098989,328.308926 259.510546,328.025162 C258.682844,328.008591 257.823653,328 256.932998,328 L256.067002,328 L256.067002,328 C255.176347,328 254.317156,328.008591 253.489454,328.025162 C235.059725,328.292141 217.326748,330.638376 210.23865,332.890115 C209.161436,331.688234 208.444302,330.147834 208.795542,328.252992 C211.042948,316.128835 218.803791,319.248982 221.944703,301.13352 C225.085614,283.018059 221.224224,261.23108 220.13008,250.200556 C218.293811,231.688357 204.011616,198.717848 198.932723,172.172551 C197.421789,166.879205 196.612704,161.28925 196.612704,155.510067 C196.612704,122.09128 223.667417,95 257.041097,95 Z" id="Combined-Shape" fill="#000000"></path>
        <path d="M144,398 C139.753846,393.749687 135.861538,388.55486 132.323077,382.415519 C128.784615,376.276179 126.661538,368.483938 125.953846,359.038798 L125.953846,359.038798 L121.353846,294.221527 C120.410256,282.651231 117.34359,273.973509 112.153846,268.18836 C106.964103,262.403212 100.948718,258.44806 94.1076923,256.322904 C100.948718,254.197747 106.964103,250.242595 112.153846,244.457447 C117.34359,238.672299 120.410256,229.758448 121.353846,217.715895 L121.353846,217.715895 L125.953846,153.961202 C126.661538,144.516062 128.784615,136.723821 132.323077,130.584481 C135.861538,124.44514 139.753846,119.250313 144,115 L144,115 L125.953846,115 C120.528205,119.486441 116.517949,125.153525 113.923077,132.001252 C111.328205,138.848978 109.558974,147.467668 108.615385,157.857322 L108.615385,157.857322 L103.661538,218.070088 C103.189744,225.390071 100.535897,232.237797 95.7,238.613267 C90.8641026,244.988736 83.9641026,248.766792 75,249.947434 L75,249.947434 L75,262.698373 C83.9641026,263.879015 90.8641026,267.657071 95.7,274.032541 C100.535897,280.40801 103.189744,287.255736 103.661538,294.57572 L103.661538,294.57572 L108.615385,355.142678 C109.558974,365.532332 111.328205,374.151022 113.923077,380.998748 C116.517949,387.846475 120.528205,393.513559 125.953846,398 L125.953846,398 L144,398 Z" id="{" fill="#000000" fill-rule="nonzero"></path>
        <path d="M436,398 C431.753846,393.749687 427.861538,388.55486 424.323077,382.415519 C420.784615,376.276179 418.661538,368.483938 417.953846,359.038798 L417.953846,359.038798 L413.353846,294.221527 C412.410256,282.651231 409.34359,273.973509 404.153846,268.18836 C398.964103,262.403212 392.948718,258.44806 386.107692,256.322904 C392.948718,254.197747 398.964103,250.242595 404.153846,244.457447 C409.34359,238.672299 412.410256,229.758448 413.353846,217.715895 L413.353846,217.715895 L417.953846,153.961202 C418.661538,144.516062 420.784615,136.723821 424.323077,130.584481 C427.861538,124.44514 431.753846,119.250313 436,115 L436,115 L417.953846,115 C412.528205,119.486441 408.517949,125.153525 405.923077,132.001252 C403.328205,138.848978 401.558974,147.467668 400.615385,157.857322 L400.615385,157.857322 L395.661538,218.070088 C395.189744,225.390071 392.535897,232.237797 387.7,238.613267 C382.864103,244.988736 375.964103,248.766792 367,249.947434 L367,249.947434 L367,262.698373 C375.964103,263.879015 382.864103,267.657071 387.7,274.032541 C392.535897,280.40801 395.189744,287.255736 395.661538,294.57572 L395.661538,294.57572 L400.615385,355.142678 C401.558974,365.532332 403.328205,374.151022 405.923077,380.998748 C408.517949,387.846475 412.528205,393.513559 417.953846,398 L417.953846,398 L436,398 Z" id="{" fill="#000000" fill-rule="nonzero" transform="translate(401.500000, 256.500000) scale(-1, 1) translate(-401.500000, -256.500000) "></path>
    </g>
</svg>